<svg width="30" height="30" viewBox="0 0 30 30" fill="none" xmlns="http://www.w3.org/2000/svg">
<path d="M9.27273 1C4.72562 1 1 4.72562 1 9.27273V20.7273C1 25.2744 4.72562 29 9.27273 29H20.7273C25.2744 29 29 25.2744 29 20.7273V9.27273C29 4.72562 25.2744 1 20.7273 1H9.27273ZM9.27273 2.27273H20.7273C24.5802 2.27273 27.7273 5.41983 27.7273 9.27273V20.7273C27.7273 24.5802 24.5802 27.7273 20.7273 27.7273H9.27273C5.41983 27.7273 2.27273 24.5802 2.27273 20.7273V9.27273C2.27273 5.41983 5.41983 2.27273 9.27273 2.27273ZM22.6364 6.09091C21.9364 6.09091 21.3636 6.66364 21.3636 7.36364C21.3636 8.06364 21.9364 8.63636 22.6364 8.63636C23.3364 8.63636 23.9091 8.06364 23.9091 7.36364C23.9091 6.66364 23.3364 6.09091 22.6364 6.09091ZM15 8C11.1529 8 8 11.1529 8 15C8 18.8471 11.1529 22 15 22C18.8471 22 22 18.8471 22 15C22 11.1529 18.8471 8 15 8ZM15 9.27273C18.1529 9.27273 20.7273 11.8471 20.7273 15C20.7273 18.1529 18.1529 20.7273 15 20.7273C11.8471 20.7273 9.27273 18.1529 9.27273 15C9.27273 11.8471 11.8471 9.27273 15 9.27273Z" fill="white" stroke="white"/>
</svg>
