<svg width="22" height="22" viewBox="0 0 22 22" fill="none" xmlns="http://www.w3.org/2000/svg">
<path d="M16.8188 12.9965C16.8188 12.2565 16.6843 11.7184 16.4152 11.3821C16.1461 11.0121 15.6416 10.8271 14.9017 10.8271C13.9936 10.8271 13.3545 11.0962 12.9845 11.6343C12.6146 12.1725 12.4296 12.9292 12.4296 13.9046V21.2705C12.4296 21.4387 12.3791 21.5732 12.2782 21.6741C12.1773 21.775 12.0428 21.8254 11.8746 21.8254H8.04032C7.90578 21.8254 7.77124 21.775 7.63671 21.6741C7.53581 21.5732 7.48535 21.4387 7.48535 21.2705V7.64867C7.48535 7.51413 7.53581 7.39641 7.63671 7.29551C7.77124 7.16098 7.90578 7.09371 8.04032 7.09371H11.7737C11.9082 7.09371 12.0091 7.12734 12.0764 7.19461C12.1773 7.26188 12.2446 7.36278 12.2782 7.49732C12.2782 7.63185 12.2782 7.71594 12.2782 7.74957C12.3118 7.81684 12.3287 7.93456 12.3287 8.10273C13.2704 7.19461 14.5485 6.74055 16.163 6.74055C17.9456 6.74055 19.3414 7.19461 20.3504 8.10273C21.3594 9.01085 21.8639 10.3394 21.8639 12.0884V21.2705C21.8639 21.4387 21.7967 21.5732 21.6621 21.6741C21.5612 21.775 21.4435 21.8254 21.309 21.8254H17.3738C17.2392 21.8254 17.1047 21.775 16.9702 21.6741C16.8693 21.5732 16.8188 21.4387 16.8188 21.2705V12.9965ZM5.51776 2.95671C5.51776 3.66303 5.2655 4.28526 4.76099 4.82341C4.25648 5.32792 3.63425 5.58017 2.8943 5.58017C2.18798 5.58017 1.58257 5.32792 1.07806 4.82341C0.573545 4.28526 0.321289 3.66303 0.321289 2.95671C0.321289 2.21676 0.573545 1.59453 1.07806 1.09002C1.58257 0.585508 2.18798 0.333252 2.8943 0.333252C3.63425 0.333252 4.25648 0.585508 4.76099 1.09002C5.2655 1.59453 5.51776 2.21676 5.51776 2.95671ZM5.41686 7.64867V21.2705C5.41686 21.4387 5.34959 21.5732 5.21505 21.6741C5.11415 21.775 4.99643 21.8254 4.86189 21.8254H1.02761C0.859435 21.8254 0.724898 21.775 0.623996 21.6741C0.523094 21.5732 0.472643 21.4387 0.472643 21.2705V7.64867C0.472643 7.51413 0.523094 7.39641 0.623996 7.29551C0.724898 7.16098 0.859435 7.09371 1.02761 7.09371H4.86189C4.99643 7.09371 5.11415 7.16098 5.21505 7.29551C5.34959 7.39641 5.41686 7.51413 5.41686 7.64867Z" fill="white"/>
</svg>
